<svg xmlns="http://www.w3.org/2000/svg" viewBox="0 0 1600 1200" role="img" aria-labelledby="title desc">
  <title id="title">医師3名による法人向け医療コンサルティングのイメージ</title>
  <desc id="desc">ノートPC、文献、AIダッシュボード、動画企画資料を抽象化したB2B向けヒーロー画像です。</desc>
  <defs>
    <linearGradient id="bg" x1="0" y1="0" x2="1" y2="1">
      <stop offset="0%" stop-color="#071a25" />
      <stop offset="55%" stop-color="#0d3742" />
      <stop offset="100%" stop-color="#0f766e" />
    </linearGradient>
  </defs>
  <rect width="1600" height="1200" rx="60" fill="url(#bg)" />
  <circle cx="1230" cy="230" r="140" fill="#d18f2f" fill-opacity="0.28" />
  <circle cx="270" cy="240" r="110" fill="#ffffff" fill-opacity="0.12" />
  <rect x="140" y="170" width="460" height="290" rx="28" fill="#f7f4ec" fill-opacity="0.1" stroke="#f7f4ec" stroke-opacity="0.24" />
  <rect x="1000" y="250" width="420" height="240" rx="28" fill="#f7f4ec" fill-opacity="0.1" stroke="#f7f4ec" stroke-opacity="0.22" />
  <rect x="280" y="560" width="1040" height="420" rx="36" fill="#f7f4ec" fill-opacity="0.09" stroke="#f7f4ec" stroke-opacity="0.2" />
  <rect x="220" y="330" width="300" height="18" rx="9" fill="#9fe5d2" fill-opacity="0.9" />
  <rect x="220" y="370" width="220" height="14" rx="7" fill="#f7f4ec" fill-opacity="0.7" />
  <rect x="1060" y="315" width="220" height="16" rx="8" fill="#9fe5d2" fill-opacity="0.9" />
  <rect x="1060" y="356" width="280" height="14" rx="7" fill="#f7f4ec" fill-opacity="0.68" />
  <g transform="translate(420 690)">
    <circle cx="0" cy="0" r="84" fill="#f7f4ec" fill-opacity="0.9" />
    <circle cx="380" cy="0" r="84" fill="#9fe5d2" fill-opacity="0.9" />
    <circle cx="760" cy="0" r="84" fill="#d18f2f" fill-opacity="0.9" />
    <rect x="-54" y="112" width="108" height="182" rx="36" fill="#f7f4ec" fill-opacity="0.84" />
    <rect x="326" y="112" width="108" height="182" rx="36" fill="#9fe5d2" fill-opacity="0.84" />
    <rect x="706" y="112" width="108" height="182" rx="36" fill="#f3d4a0" fill-opacity="0.84" />
  </g>
  <path d="M610 800 C760 660, 860 660, 1010 800" stroke="#ffffff" stroke-width="8" stroke-opacity="0.42" fill="none" stroke-linecap="round" />
  <path d="M800 470 L800 630" stroke="#9fe5d2" stroke-width="10" stroke-linecap="round" />
  <path d="M720 550 L800 630 L880 550" stroke="#9fe5d2" stroke-width="10" stroke-linecap="round" stroke-linejoin="round" fill="none" />
</svg>
